<svg width="53" height="39" viewBox="0 0 53 39" fill="none" xmlns="http://www.w3.org/2000/svg">
<g clip-path="url(#clip0_2084_594)">
<path fill-rule="evenodd" clip-rule="evenodd" d="M6.38301 29.186C6.72834 29.186 7.01797 29.4645 7.01797 29.821C7.01797 30.1663 6.73948 30.456 6.38301 30.456C6.03768 30.456 5.74805 30.1775 5.74805 29.821C5.75919 29.4645 6.03768 29.186 6.38301 29.186Z" fill="#644FCF"/>
<path fill-rule="evenodd" clip-rule="evenodd" d="M46.8869 28.7849C47.2322 28.7849 47.5219 29.0634 47.5219 29.4199C47.5219 29.7652 47.2434 30.0548 46.8869 30.0548C46.5416 30.0548 46.252 29.7763 46.252 29.4199C46.2631 29.0634 46.5416 28.7849 46.8869 28.7849Z" fill="#644FCF"/>
<path fill-rule="evenodd" clip-rule="evenodd" d="M5.6589 26.9469L3.38641 28.5176L2.87398 27.7935C2.67347 27.515 2.56207 27.3256 2.52865 27.2254C2.47295 27.0694 2.47295 26.9135 2.51751 26.7464C2.57321 26.5793 2.68461 26.4344 2.86284 26.3119C3.00766 26.2117 3.14133 26.156 3.26387 26.1448C3.39755 26.1337 3.52008 26.1448 3.62034 26.1782C3.73174 26.2228 3.82085 26.2674 3.89883 26.3342C3.99909 26.4233 4.12163 26.5793 4.26644 26.7798L4.4781 27.0806L5.33585 26.4901L5.6589 26.9469ZM3.45324 27.8046L4.09935 27.359L3.92111 27.114C3.79857 26.9357 3.69832 26.8243 3.63148 26.7798C3.56464 26.7352 3.4978 26.7129 3.41983 26.7129C3.34185 26.7129 3.27501 26.7352 3.20817 26.7798C3.13019 26.8355 3.0745 26.9135 3.05222 26.9914C3.02994 27.0806 3.04108 27.1585 3.08564 27.2476C3.11905 27.3145 3.18589 27.4259 3.29729 27.5818L3.45324 27.8046ZM1.88255 26.2674L1.6152 25.7104L2.65119 24.5296L1.11391 24.641L0.868841 24.1174L3.18589 24.0728C3.43097 24.0728 3.64262 24.084 3.78744 24.1397C3.94339 24.1842 4.05479 24.2845 4.12163 24.4293C4.18846 24.5741 4.23302 24.6967 4.2553 24.7858L3.87655 24.964C3.84313 24.886 3.82085 24.8303 3.78744 24.7635C3.73174 24.6521 3.67604 24.5741 3.6092 24.5407C3.54236 24.5073 3.43097 24.5073 3.26387 24.5184L1.88255 26.2674ZM1.90483 21.1988L1.93825 20.6418C2.25016 20.653 2.50637 20.7309 2.69575 20.8758C2.88512 21.0206 3.0188 21.2434 3.08564 21.533C3.17475 21.8895 3.13019 22.2014 2.94082 22.491C2.75145 22.7806 2.45067 22.97 2.02737 23.0814C1.58178 23.1928 1.20303 23.1594 0.89112 22.9923C0.590349 22.8252 0.389835 22.5578 0.289578 22.1791C0.2116 21.856 0.233879 21.5664 0.378695 21.3102C0.467812 21.1654 0.601488 21.0317 0.802003 20.9203L1.06935 21.4216C0.935679 21.4884 0.846561 21.5776 0.790863 21.7001C0.735165 21.8226 0.724025 21.9563 0.757444 22.09C0.813142 22.2905 0.924539 22.4242 1.09163 22.5133C1.26987 22.6024 1.51494 22.6024 1.83799 22.5244C2.18332 22.4353 2.40612 22.3239 2.51751 22.168C2.62891 22.012 2.66233 21.8338 2.61777 21.6444C2.58435 21.4996 2.50637 21.3882 2.38384 21.3102C2.28358 21.2322 2.11648 21.1988 1.90483 21.1988ZM1.83799 18.1688L2.03851 17.6452C2.33928 17.7455 2.55093 17.8903 2.69575 18.0908C2.82942 18.2913 2.89626 18.5364 2.87398 18.8261C2.8517 19.1937 2.71803 19.4833 2.45067 19.7061C2.18332 19.9289 1.83799 20.0291 1.40355 20.0069C0.935679 19.9846 0.590349 19.8509 0.345276 19.5947C0.100203 19.3496 -0.0111936 19.0266 0.0110857 18.6478C0.0333651 18.3136 0.144762 18.0463 0.356416 17.8458C0.478952 17.7232 0.657187 17.6452 0.87998 17.5895L0.980237 18.1465C0.835422 18.1688 0.712885 18.2356 0.623768 18.3359C0.53465 18.4362 0.490092 18.5587 0.478952 18.7035C0.467812 18.904 0.53465 19.0711 0.679466 19.2048C0.824282 19.3385 1.05822 19.4165 1.38127 19.4276C1.73774 19.4499 1.98281 19.3942 2.13876 19.2828C2.29472 19.1714 2.3727 19.0043 2.38384 18.8038C2.39498 18.659 2.35042 18.5253 2.2613 18.4139C2.18332 18.3025 2.03851 18.2245 1.83799 18.1688ZM0.22274 16.4644L0.367555 15.9297L1.51494 16.2305C1.53722 16.108 1.52608 16.0189 1.49266 15.9632C1.45924 15.9075 1.33671 15.8072 1.12505 15.6624C0.868841 15.473 0.712885 15.3171 0.668326 15.1834C0.623768 15.0497 0.646047 14.8603 0.712885 14.6153C0.712885 14.6041 0.724025 14.5818 0.735165 14.5373L1.13619 14.6487L1.11391 14.7267C1.08049 14.838 1.08049 14.916 1.09163 14.9829C1.10277 15.0386 1.13619 15.0943 1.18075 15.1388C1.22531 15.1834 1.33671 15.2614 1.49266 15.3728C1.58178 15.4285 1.64862 15.4841 1.69318 15.5398C1.74887 15.5955 1.78229 15.6735 1.81571 15.7849C1.88255 15.6735 1.98281 15.5955 2.10534 15.5398C2.22788 15.4953 2.39498 15.4396 2.61777 15.395L3.45324 15.2279L3.28615 15.8518L2.50637 15.9854C2.49523 15.9854 2.47295 15.9966 2.43953 15.9966C2.4284 15.9966 2.38384 16.0077 2.29472 16.03C2.1499 16.0634 2.04965 16.0968 2.00509 16.1303C1.96053 16.1637 1.92711 16.2305 1.89369 16.3196L3.0745 16.6315L2.92968 17.1662L0.22274 16.4644ZM2.21674 14.4147C1.96053 14.2922 1.77115 14.1474 1.62634 13.9914C1.52608 13.8689 1.4481 13.7464 1.39241 13.6015C1.33671 13.4567 1.31443 13.3119 1.32557 13.1782C1.33671 12.9889 1.39241 12.7995 1.49266 12.599C1.6709 12.2314 1.92711 11.9974 2.2613 11.8972C2.59549 11.7858 2.97424 11.8303 3.37527 12.0308C3.7763 12.2202 4.04365 12.4876 4.16618 12.8106C4.28872 13.1337 4.2553 13.479 4.07707 13.8466C3.89883 14.2142 3.64262 14.4482 3.30843 14.5596C2.98538 14.6487 2.61777 14.6041 2.21674 14.4147ZM2.45067 13.8912C2.72917 14.0249 2.98538 14.0694 3.18589 14.0026C3.39755 13.9469 3.5535 13.8132 3.64262 13.6127C3.74288 13.4122 3.75402 13.2228 3.6649 13.0223C3.58692 12.8218 3.39755 12.6547 3.10792 12.521C2.81828 12.3873 2.57321 12.3428 2.3727 12.3985C2.17218 12.4542 2.01623 12.5878 1.91597 12.7883C1.81571 12.9889 1.80457 13.1894 1.88255 13.3899C1.98281 13.5904 2.17218 13.7575 2.45067 13.8912ZM4.9014 12.2871L2.65119 10.6829L3.86541 9.03428L4.24416 9.30163L3.36413 10.4936L3.86541 10.85L4.68975 9.73608L5.0685 10.0034L4.24416 11.1174L4.85684 11.5518L5.7703 10.3153L6.14905 10.5827L4.9014 12.2871ZM5.44725 7.40788L6.87313 6.19366L7.18504 6.53899L6.18247 7.39674L7.69746 9.11226L7.27415 9.47986L5.44725 7.40788ZM8.90055 8.03171L7.38555 5.73693L9.1122 4.6341L9.36841 5.02399L8.10963 5.82605L8.44382 6.33848L9.61349 5.59212L9.8697 5.98201L8.70003 6.72836L9.1122 7.35219L10.4155 6.51671L10.6718 6.9066L8.90055 8.03171ZM10.3041 5.503C10.1705 5.25793 10.0925 5.03513 10.0702 4.82348C10.0591 4.66752 10.0702 4.52271 10.1148 4.36675C10.1593 4.22194 10.215 4.08826 10.3041 3.97686C10.4155 3.83205 10.5715 3.70951 10.772 3.59811C11.1285 3.3976 11.4738 3.35304 11.8191 3.4533C12.1533 3.55356 12.4318 3.79863 12.6546 4.18852C12.8774 4.57841 12.9331 4.93488 12.844 5.26907C12.7549 5.60326 12.5321 5.87061 12.1756 6.05998C11.8191 6.2605 11.4627 6.30506 11.1285 6.2048C10.7943 6.12682 10.5158 5.89289 10.3041 5.503ZM10.8054 5.21337C10.9614 5.48072 11.1396 5.65896 11.3401 5.72579C11.5518 5.79263 11.7523 5.78149 11.9417 5.67009C12.1422 5.5587 12.2536 5.40274 12.3093 5.20223C12.3538 4.99057 12.2981 4.75664 12.1422 4.47815C11.9862 4.19966 11.808 4.03256 11.6186 3.96572C11.4181 3.89889 11.2176 3.92117 11.0171 4.03256C10.8166 4.14396 10.694 4.29991 10.6383 4.50043C10.5938 4.70094 10.6495 4.93488 10.8054 5.21337ZM12.6992 2.74036L14.4481 2.0497L14.6263 2.47301L13.401 2.96315L14.2699 5.07969L13.7463 5.29135L12.6992 2.74036ZM15.7737 4.46701L14.9605 1.84919L15.8183 1.59297C16.1413 1.49272 16.3641 1.44816 16.4644 1.43702C16.6315 1.42588 16.7874 1.48158 16.9323 1.58183C17.0771 1.68209 17.1773 1.83805 17.2442 2.0497C17.2999 2.20566 17.311 2.35047 17.2776 2.48415C17.2553 2.60668 17.1996 2.71808 17.1328 2.8072C17.0659 2.89632 16.9768 2.96315 16.8988 3.01885C16.7763 3.08569 16.5981 3.15253 16.353 3.21937L16.0077 3.33076L16.3196 4.32219L15.7737 4.46701ZM15.6289 2.12768L15.8628 2.87404L16.1525 2.78492C16.3641 2.71808 16.4978 2.66238 16.5646 2.61782C16.6315 2.57327 16.6649 2.50643 16.6872 2.43959C16.7095 2.37275 16.7095 2.29477 16.6872 2.2168C16.6538 2.11654 16.6092 2.0497 16.5312 2.00514C16.4532 1.96058 16.3753 1.9383 16.275 1.94944C16.2082 1.96058 16.0745 1.994 15.8851 2.0497L15.6289 2.12768ZM20.3967 3.24165L19.8063 3.37532L19.4275 2.81834L18.347 3.06341L18.269 3.72065L17.6898 3.85433L18.1242 0.946872L18.7035 0.813196L20.3967 3.24165ZM19.1379 2.41731L18.5364 1.515L18.4027 2.5844L19.1379 2.41731ZM22.179 2.6958L22.2236 3.00771L21.6778 3.07455L21.6332 2.76264C21.1876 2.79606 20.8646 2.72922 20.664 2.55099C20.4635 2.37275 20.341 2.13882 20.2964 1.83805C20.263 1.52614 20.3187 1.25878 20.4858 1.04713C20.6529 0.835476 20.9425 0.69066 21.3658 0.623822L21.3324 0.35647L21.8783 0.289632L21.9117 0.556984C22.3573 0.523565 22.6803 0.590403 22.8808 0.768638C23.0925 0.946872 23.215 1.18081 23.2484 1.48158C23.2819 1.78235 23.2262 2.03856 23.0702 2.26135C22.9143 2.48415 22.6246 2.62896 22.179 2.6958ZM22.1233 2.23907C22.2682 2.2168 22.3907 2.18338 22.4909 2.11654C22.5912 2.06084 22.658 1.98286 22.6915 1.89374C22.7249 1.80463 22.736 1.68209 22.7137 1.52614C22.6692 1.13625 22.4241 0.958012 21.9785 1.01371L22.1233 2.23907ZM21.5775 2.30591L21.4215 1.09169C21.1876 1.12511 21.0205 1.19195 20.9314 1.30334C20.8423 1.41474 20.8089 1.58183 20.8311 1.79349C20.8868 2.19452 21.1319 2.36161 21.5775 2.30591ZM23.7275 0.111397L24.251 0.0891174L24.3513 1.91602L25.3761 0.033419L25.9331 0L26.0779 2.74036L25.5544 2.76264L25.4541 0.980291L24.4293 2.82948L23.8723 2.8629L23.7275 0.111397ZM26.7574 0.0222794L27.3144 0.0556984L27.281 0.712939C27.2699 0.924593 27.2699 1.06941 27.281 1.13625C27.2921 1.20308 27.3367 1.26992 27.4147 1.32562C27.4927 1.38132 27.6041 1.41474 27.76 1.41474C27.8826 1.42588 27.9828 1.41474 28.0831 1.39246C28.1722 1.37018 28.2613 1.33676 28.3281 1.2922L28.3838 0.111397L28.9408 0.144816L28.796 2.88518L28.239 2.85176L28.2947 1.74893C28.1833 1.79349 28.0608 1.82691 27.9494 1.84919C27.838 1.87147 27.7266 1.87147 27.6263 1.87147C27.3478 1.86033 27.1251 1.78235 26.9468 1.63753C26.7686 1.50386 26.6906 1.26992 26.7017 0.958012L26.7574 0.0222794ZM29.3864 2.89632L29.7206 0.178235L31.7703 0.423308L31.7035 0.891174L30.2107 0.712939L30.1328 1.31448L31.5141 1.48158L31.4584 1.9383L30.0771 1.77121L29.9879 2.50643L31.5252 2.6958L31.4695 3.15253L29.3864 2.89632ZM33.8757 2.60668L34.377 2.87404C34.2322 3.15253 34.0539 3.3419 33.8423 3.4533C33.6195 3.5647 33.3633 3.58698 33.0736 3.53128C32.7172 3.46444 32.4387 3.2862 32.2493 2.99657C32.0599 2.70694 32.0154 2.35047 32.0933 1.92716C32.1825 1.48158 32.3718 1.15853 32.6503 0.946872C32.9288 0.746358 33.263 0.67952 33.6529 0.757498C33.9871 0.824336 34.2433 0.969152 34.4104 1.20308C34.5107 1.33676 34.5775 1.52614 34.5886 1.74893L34.0205 1.77121C34.0205 1.62639 33.976 1.50386 33.8868 1.4036C33.7977 1.30334 33.6863 1.2365 33.5415 1.21422C33.341 1.18081 33.1628 1.21422 33.0068 1.33676C32.8508 1.4593 32.7394 1.67095 32.6838 1.994C32.6169 2.33933 32.6281 2.5844 32.7283 2.7515C32.8286 2.9186 32.9734 3.01885 33.1739 3.06341C33.3187 3.09683 33.4524 3.07455 33.5749 2.99657C33.6863 2.92973 33.7866 2.79606 33.8757 2.60668ZM35.5132 1.21422L36.0479 1.38132L35.7026 2.49529C35.8251 2.51757 35.9143 2.51757 35.97 2.47301C36.0257 2.43959 36.137 2.31705 36.293 2.12768C36.4935 1.88261 36.6606 1.73779 36.7943 1.70437C36.928 1.67095 37.1173 1.69323 37.3624 1.76007C37.3736 1.76007 37.3958 1.77121 37.4404 1.78235L37.3179 2.17224L37.2399 2.14996C37.1285 2.11654 37.0505 2.1054 36.9837 2.11654C36.928 2.12768 36.8723 2.1611 36.8277 2.20566C36.7831 2.25021 36.694 2.35047 36.5826 2.50643C36.5269 2.5844 36.4601 2.65124 36.4044 2.70694C36.3487 2.7515 36.2596 2.79606 36.1482 2.81834C36.2596 2.88518 36.3376 2.98543 36.3821 3.10797C36.4267 3.23051 36.4712 3.3976 36.5047 3.60925L36.6495 4.43359L36.0145 4.24422L35.9031 3.47558C35.9031 3.46444 35.892 3.44216 35.892 3.40874C35.892 3.3976 35.8808 3.35304 35.8586 3.26392C35.8251 3.11911 35.8029 3.01885 35.7583 2.97429C35.7249 2.92973 35.658 2.89632 35.5689 2.8629L35.2125 4.01028L34.6777 3.84319L35.5132 1.21422ZM37.3401 3.24165C37.4515 2.98543 37.5741 2.78492 37.73 2.6401C37.8414 2.53985 37.964 2.45073 38.1088 2.38389C38.2536 2.31705 38.3984 2.29477 38.5321 2.28363C38.7215 2.28363 38.922 2.31705 39.1336 2.40617C39.5124 2.56213 39.7686 2.79606 39.9023 3.11911C40.0359 3.44216 40.0137 3.80977 39.8466 4.22194C39.6795 4.63411 39.4344 4.9126 39.1113 5.04627C38.7883 5.19109 38.443 5.17995 38.0642 5.03513C37.6855 4.87918 37.4181 4.64524 37.2956 4.32219C37.1619 4.01028 37.173 3.64267 37.3401 3.24165ZM37.886 3.44216C37.7634 3.73179 37.7412 3.97686 37.8191 4.17738C37.8971 4.37789 38.0308 4.52271 38.2424 4.60069C38.4541 4.67866 38.6546 4.67866 38.844 4.57841C39.0334 4.48929 39.1893 4.28877 39.3119 3.99914C39.4344 3.70951 39.4567 3.46444 39.3898 3.27506C39.323 3.07455 39.1782 2.94087 38.9665 2.85176C38.7549 2.76264 38.5544 2.77378 38.3538 2.8629C38.1645 2.95201 38.0085 3.14139 37.886 3.44216ZM39.7463 5.71465L41.0942 3.31962L42.8988 4.29991L42.676 4.70094L41.3616 3.988L41.0608 4.52271L42.2861 5.19109L42.0634 5.59212L40.838 4.92374L40.4704 5.58098L41.8294 6.32734L41.6066 6.72836L39.7463 5.71465ZM43.6563 6.39417C43.8346 6.18252 44.0128 6.02656 44.2022 5.92631C44.3358 5.85947 44.4918 5.81491 44.6478 5.79263C44.8037 5.77035 44.9485 5.78149 45.0822 5.82605C45.2604 5.88175 45.4387 5.97087 45.6169 6.11568C45.94 6.37189 46.1071 6.67267 46.1405 7.018C46.1739 7.36333 46.0402 7.70866 45.7617 8.05399C45.4832 8.39932 45.1602 8.58869 44.8149 8.63325C44.4695 8.67781 44.1353 8.56641 43.8123 8.32134C43.4892 8.06512 43.311 7.76435 43.2887 7.41902C43.2553 7.07369 43.3778 6.7395 43.6563 6.39417ZM44.1242 6.7395C43.9237 6.98458 43.8346 7.20737 43.8457 7.41902C43.8568 7.63068 43.946 7.80891 44.1242 7.95373C44.3024 8.0874 44.4918 8.1431 44.7035 8.10968C44.9151 8.07627 45.1268 7.93145 45.3273 7.68638C45.5278 7.4413 45.6281 7.21851 45.6169 7.00686C45.6058 6.7952 45.5167 6.62811 45.3273 6.48329C45.149 6.33848 44.9485 6.28278 44.7369 6.3162C44.5252 6.36075 44.3247 6.49443 44.1242 6.7395ZM47.2544 7.59726L48.6803 9.10111L48.335 9.41303L47.299 8.32134L46.8311 8.75578L47.3436 9.30163C47.4884 9.44644 47.5886 9.59126 47.6443 9.72494C47.7 9.85861 47.7112 10.0034 47.6777 10.1705C47.6443 10.3265 47.5552 10.4713 47.4215 10.5938C47.2879 10.7164 47.1319 10.7943 46.9648 10.8166C46.7977 10.8389 46.6529 10.8166 46.5415 10.7609C46.419 10.7052 46.2853 10.5938 46.1293 10.4267L45.2382 9.47986L47.2544 7.59726ZM45.9511 9.55784L46.3187 9.94773C46.4412 10.0703 46.5304 10.1594 46.5861 10.1928C46.6529 10.2374 46.7197 10.2485 46.7977 10.2485C46.8757 10.2485 46.9537 10.2151 47.0205 10.1594C47.1096 10.0703 47.1542 9.98115 47.1319 9.86975C47.1096 9.7695 47.0317 9.63582 46.8757 9.46872L46.4858 9.05656L45.9511 9.55784ZM49.5492 10.0925L49.8277 10.5716L47.8226 11.7078L48.2236 12.3985L50.2287 11.2622L50.5072 11.7412L48.5021 12.8775L48.9143 13.5904L50.9194 12.4542L51.1979 12.9332L49.1927 14.0694L49.3153 14.2811L48.3907 14.8158L48.1568 14.4147L48.6803 14.114L47.1319 11.4739L49.5492 10.0925ZM49.0145 14.9272L51.6992 14.2142L52.2339 16.1748L51.7771 16.2973L51.3873 14.8715L50.7969 15.0274L51.1533 16.353L50.6966 16.4756L50.3401 15.15L49.6049 15.3393L50.0059 16.8209L49.5492 16.9434L49.0145 14.9272ZM50.7523 19.0823L50.6075 19.6281C50.2956 19.5613 50.0728 19.4387 49.9057 19.2494C49.7497 19.0711 49.6606 18.826 49.6495 18.5364C49.6272 18.1688 49.7386 17.868 49.9837 17.623C50.2287 17.3779 50.5629 17.2442 50.9974 17.2219C51.4652 17.1997 51.8217 17.2999 52.0891 17.5227C52.3564 17.7455 52.5012 18.0463 52.5235 18.425C52.5458 18.7592 52.4567 19.0377 52.2673 19.2605C52.1559 19.3942 51.9888 19.4944 51.766 19.5724L51.5989 19.0266C51.7437 18.982 51.8551 18.9152 51.9331 18.8038C52.0111 18.6924 52.0445 18.5698 52.0334 18.425C52.0222 18.2245 51.9442 18.0574 51.7883 17.946C51.6323 17.8235 51.3873 17.7789 51.0642 17.7901C50.7189 17.8123 50.4627 17.8792 50.329 18.0129C50.1842 18.1465 50.1173 18.3136 50.1285 18.5141C50.1396 18.659 50.1953 18.7815 50.2956 18.8818C50.3958 18.982 50.5518 19.0488 50.7523 19.0823ZM49.6161 20.6752L51.8885 21.0651L52.0334 20.2631L52.5012 20.341L52.1225 22.491L51.6546 22.413L51.7994 21.611L49.5269 21.2099L49.6161 20.6752ZM51.8774 23.371L51.4764 24.3959C51.3984 24.5964 51.3316 24.7412 51.2759 24.8415C51.2202 24.9306 51.1533 25.0086 51.0642 25.0643C50.9751 25.12 50.886 25.1645 50.7746 25.1757C50.6632 25.1979 50.5518 25.1868 50.4404 25.1422C50.3179 25.0977 50.2176 25.0197 50.1396 24.9195C50.0616 24.8192 50.0171 24.6967 50.0171 24.5741C49.9057 24.7078 49.7831 24.8081 49.6383 24.8415C49.4935 24.886 49.3487 24.8749 49.1927 24.8192C49.0702 24.7746 48.97 24.7078 48.8808 24.6075C48.7917 24.5073 48.736 24.407 48.7026 24.2845C48.6692 24.162 48.6803 24.0394 48.7137 23.8946C48.736 23.8055 48.814 23.5938 48.9365 23.2596L49.2707 22.3907L51.8774 23.371ZM51.2424 23.7164L50.6409 23.4936L50.5072 23.8278C50.4292 24.0283 50.3847 24.1508 50.3736 24.2065C50.3513 24.2956 50.3513 24.3847 50.3847 24.4516C50.4181 24.5184 50.4738 24.5741 50.5629 24.6075C50.6409 24.641 50.7189 24.641 50.7857 24.6187C50.8526 24.5964 50.9083 24.5407 50.9528 24.4627C50.9751 24.4182 51.0419 24.2734 51.1311 24.0283L51.2424 23.7164ZM50.2176 23.3265L49.5269 23.0591L49.3376 23.5381C49.2596 23.7275 49.2262 23.85 49.215 23.8946C49.2039 23.9726 49.2039 24.0506 49.2484 24.1174C49.2819 24.1842 49.3487 24.2399 49.4378 24.2734C49.5158 24.3068 49.5938 24.3068 49.6606 24.2956C49.7275 24.2734 49.7943 24.2399 49.8388 24.1842C49.8945 24.1285 49.9614 23.9726 50.0505 23.7386L50.2176 23.3265ZM49.4824 25.4653C49.7275 25.6101 49.9057 25.7772 50.0171 25.9443C50.1062 26.0668 50.1619 26.2117 50.2065 26.3565C50.2399 26.5013 50.251 26.6461 50.2287 26.7909C50.1953 26.9692 50.1285 27.1585 50.0059 27.3479C49.7943 27.6932 49.5047 27.8937 49.1593 27.9717C48.814 28.0497 48.4464 27.9606 48.0676 27.7267C47.6889 27.4927 47.455 27.2031 47.3658 26.8689C47.2767 26.5347 47.3436 26.1894 47.5664 25.8552C47.7891 25.5099 48.0676 25.2982 48.413 25.2314C48.7472 25.1645 49.1036 25.2425 49.4824 25.4653ZM49.1927 25.9666C48.9254 25.7995 48.6803 25.7438 48.4687 25.7772C48.257 25.8106 48.0899 25.922 47.9674 26.1114C47.8448 26.3008 47.8226 26.4901 47.8783 26.7018C47.934 26.9023 48.1011 27.0917 48.3796 27.2588C48.6469 27.4259 48.892 27.4927 49.0925 27.4593C49.3041 27.4259 49.4601 27.3145 49.5826 27.114C49.7052 26.9246 49.7386 26.7241 49.6829 26.5236C49.6272 26.3119 49.4601 26.1337 49.1927 25.9666Z" fill="#644FCF"/>
<path fill-rule="evenodd" clip-rule="evenodd" d="M8.00941 31.4251C8.19879 31.1912 8.3993 31.0241 8.59982 30.9238C8.74463 30.8458 8.91173 30.8013 9.07882 30.779C9.24592 30.7567 9.40187 30.7678 9.55783 30.8124C9.75834 30.8681 9.94772 30.9684 10.1482 31.1132C10.4936 31.3805 10.6941 31.7036 10.7275 32.0712C10.7609 32.4388 10.6272 32.8175 10.3265 33.1852C10.0257 33.5528 9.68037 33.7644 9.30162 33.8201C8.92287 33.8647 8.55526 33.7644 8.20993 33.4971C7.85346 33.2297 7.66408 32.9067 7.61953 32.5391C7.58611 32.1492 7.71978 31.7816 8.00941 31.4251ZM8.52184 31.7816C8.31019 32.0378 8.20993 32.2828 8.22107 32.5168C8.23221 32.7507 8.3436 32.9289 8.53298 33.0849C8.72235 33.2297 8.93401 33.2854 9.16794 33.2409C9.40187 33.1963 9.62467 33.0515 9.84746 32.7841C10.0591 32.5168 10.1594 32.2828 10.1482 32.06C10.1371 31.8373 10.0257 31.6479 9.83632 31.5031C9.63581 31.3471 9.42415 31.2914 9.20136 31.336C8.95629 31.3694 8.73349 31.5142 8.52184 31.7816ZM12.0308 34.5888L12.443 35.0455C12.1979 35.2683 11.9306 35.402 11.6744 35.4242C11.407 35.4465 11.1397 35.3797 10.8612 35.2126C10.5158 35.0121 10.3042 34.7336 10.2262 34.3771C10.1482 34.0206 10.2373 33.6419 10.4824 33.252C10.7498 32.8398 11.0617 32.5836 11.4293 32.4834C11.7969 32.3831 12.1645 32.4388 12.521 32.6505C12.8329 32.8398 13.0334 33.0738 13.1225 33.3745C13.1782 33.5528 13.1671 33.7533 13.1002 33.9872L12.5098 33.7978C12.5655 33.653 12.5655 33.5082 12.5098 33.3745C12.4653 33.2409 12.365 33.1406 12.2314 33.0515C12.042 32.9401 11.8415 32.9178 11.6409 32.9735C11.4404 33.0403 11.2399 33.2186 11.0505 33.5082C10.85 33.8201 10.7721 34.0875 10.8055 34.288C10.8389 34.4885 10.9503 34.6445 11.1397 34.7558C11.2845 34.8338 11.4293 34.8672 11.5741 34.845C11.7189 34.845 11.8749 34.7558 12.0308 34.5888ZM12.4653 35.9924L13.7129 33.33L14.2699 33.575L13.7798 34.6222L14.8715 35.1012L15.3616 34.0541L15.9186 34.2991L14.6709 36.9615L14.114 36.7164L14.6598 35.5468L13.5681 35.0678L13.0223 36.2374L12.4653 35.9924ZM15.5844 35.7807C15.6735 35.4911 15.796 35.2683 15.952 35.1012C16.0634 34.9786 16.1971 34.8784 16.3419 34.8004C16.4978 34.7224 16.6427 34.6779 16.7986 34.6667C16.9991 34.6445 17.2219 34.6779 17.4559 34.7447C17.8792 34.8784 18.1799 35.1012 18.3582 35.4354C18.5364 35.7696 18.5475 36.1595 18.3916 36.6162C18.2468 37.0729 18.0017 37.3848 17.6675 37.563C17.3333 37.7413 16.9546 37.7636 16.5201 37.641C16.0857 37.5073 15.7849 37.2846 15.6178 36.9504C15.4507 36.6162 15.4396 36.2263 15.5844 35.7807ZM16.1971 35.9478C16.0968 36.2597 16.0968 36.5271 16.1859 36.7387C16.2862 36.9504 16.4533 37.084 16.6872 37.162C16.9212 37.2289 17.1328 37.2066 17.3445 37.0952C17.545 36.9838 17.7009 36.761 17.8012 36.4379C17.9014 36.1149 17.9126 35.8587 17.8123 35.6582C17.7232 35.4577 17.545 35.324 17.311 35.246C17.066 35.168 16.8543 35.1903 16.6538 35.3128C16.4533 35.402 16.2973 35.6247 16.1971 35.9478ZM19.1491 35.2349L20.3299 35.5022C20.5638 35.5579 20.7309 35.6025 20.8423 35.647C20.9537 35.6916 21.0428 35.7584 21.1208 35.8364C21.1988 35.9144 21.2545 36.0146 21.2879 36.126C21.3213 36.2374 21.3213 36.36 21.299 36.4825C21.2656 36.6162 21.1988 36.7276 21.0985 36.8278C20.9983 36.9169 20.8757 36.9838 20.7309 37.0061C20.898 37.0952 21.0206 37.2177 21.0763 37.3625C21.1431 37.5073 21.1542 37.6633 21.1097 37.8304C21.0763 37.9641 21.0206 38.0755 20.9203 38.1869C20.8312 38.2983 20.7198 38.3762 20.5972 38.4208C20.4747 38.4654 20.3299 38.4876 20.1628 38.4654C20.0625 38.4542 19.8175 38.4097 19.4387 38.3205L18.4361 38.0866L19.1491 35.2349ZM19.6281 35.8475L19.461 36.5048L19.8509 36.5939C20.0848 36.6496 20.2296 36.6719 20.2853 36.683C20.3856 36.6942 20.4747 36.683 20.5527 36.6385C20.6195 36.5939 20.6752 36.5271 20.6975 36.4379C20.7198 36.3488 20.7086 36.2708 20.6752 36.204C20.6418 36.1372 20.575 36.0815 20.4747 36.0481C20.419 36.0258 20.2519 35.9812 19.9734 35.9255L19.6281 35.8475ZM19.3496 36.9838L19.1602 37.7413L19.7061 37.8638C19.9177 37.9084 20.0625 37.9418 20.1182 37.9418C20.2074 37.9418 20.2965 37.9195 20.3633 37.875C20.4302 37.8304 20.4859 37.7524 20.5081 37.6522C20.5304 37.563 20.5304 37.4851 20.497 37.4182C20.4636 37.3514 20.419 37.2957 20.341 37.24C20.2631 37.1954 20.096 37.1397 19.8175 37.0729L19.3496 36.9838ZM23.928 38.9889L23.2708 38.9109L23.0925 38.2203L21.8894 38.0643L21.5553 38.6882L20.9092 38.6102L22.4687 35.8475L23.1148 35.9255L23.928 38.9889ZM22.9589 37.6967L22.6915 36.5716L22.1457 37.5965L22.9589 37.6967ZM24.2399 38.9889L24.2622 36.0592H24.8749L24.8637 37.2066L26.0668 37.2177L26.078 36.0703H26.6906L26.6684 39.0001H26.0557L26.0668 37.719L24.8637 37.7079L24.8526 38.9889H24.2399ZM27.0805 37.5853C27.0583 37.2846 27.0917 37.0395 27.1697 36.8278C27.2254 36.6719 27.3145 36.5382 27.4259 36.4045C27.5373 36.282 27.6598 36.1817 27.8046 36.1149C27.994 36.0258 28.2056 35.9701 28.4507 35.9589C28.8963 35.9367 29.2639 36.0481 29.5424 36.2931C29.832 36.5382 29.988 36.9058 30.0214 37.3848C30.0548 37.8527 29.9434 38.2314 29.6984 38.5211C29.4533 38.7996 29.108 38.9555 28.6624 38.9889C28.2168 39.0112 27.8492 38.8998 27.5595 38.6547C27.2699 38.3985 27.114 38.0421 27.0805 37.5853ZM27.7044 37.5185C27.7266 37.8527 27.8269 38.0978 27.994 38.2537C28.1611 38.4097 28.3727 38.4876 28.6178 38.4765C28.8629 38.4654 29.0523 38.3651 29.1971 38.1869C29.3419 38.0086 29.4087 37.7524 29.3864 37.4071C29.3642 37.0729 29.2751 36.8278 29.108 36.6719C28.9409 36.5159 28.7403 36.4491 28.4841 36.4602C28.2279 36.4714 28.0385 36.5716 27.8937 36.7499C27.7489 36.9281 27.6821 37.1843 27.7044 37.5185ZM31.102 35.7807L32.2828 35.5245C32.5167 35.4688 32.6949 35.4465 32.8175 35.4354C32.94 35.4242 33.0514 35.4465 33.1517 35.4911C33.2519 35.5356 33.3522 35.5913 33.4302 35.6804C33.5193 35.7696 33.575 35.8698 33.5972 35.9924C33.6307 36.126 33.6195 36.2597 33.575 36.3822C33.5304 36.5048 33.4413 36.6162 33.3299 36.6942C33.5193 36.7053 33.6752 36.761 33.8089 36.8612C33.9314 36.9615 34.0206 37.0952 34.054 37.2623C34.0874 37.396 34.0874 37.5296 34.0428 37.6633C34.0094 37.797 33.9426 37.9195 33.8535 38.0086C33.7643 38.1089 33.6418 38.1757 33.4858 38.2314C33.3856 38.2648 33.1517 38.3205 32.7729 38.4097L31.7703 38.6213L31.102 35.7807ZM31.8038 36.126L31.9597 36.7833L32.3496 36.6942C32.5835 36.6385 32.7283 36.605 32.784 36.5939C32.8843 36.5605 32.9511 36.5048 33.0068 36.4379C33.0514 36.3711 33.0625 36.2931 33.0403 36.1929C33.018 36.1037 32.9734 36.0369 32.9177 35.9924C32.8509 35.9478 32.7729 35.9367 32.6727 35.9367C32.617 35.9478 32.4387 35.9812 32.1602 36.0369L31.8038 36.126ZM32.0711 37.2623L32.2493 38.0309L32.8063 37.9084C33.018 37.8638 33.1628 37.8304 33.2074 37.797C33.2965 37.7636 33.3522 37.7079 33.3967 37.641C33.4413 37.563 33.4524 37.4851 33.4302 37.3848C33.4079 37.2957 33.3745 37.2289 33.3188 37.1843C33.2631 37.1286 33.1851 37.1063 33.1071 37.0952C33.018 37.084 32.8397 37.1063 32.5724 37.1732L32.0711 37.2623ZM37.1842 37.2511L36.6384 37.4294L35.9366 35.4242C35.8029 35.6693 35.6135 35.881 35.3685 36.0592L35.2014 35.5802C35.3239 35.4911 35.4576 35.3463 35.5801 35.168C35.7026 34.9898 35.7695 34.8004 35.7695 34.611L36.2151 34.4662L37.1842 37.2511ZM37.7858 35.3351C37.6187 35.3351 37.485 35.3017 37.3847 35.2349C37.2733 35.168 37.1954 35.0678 37.1397 34.9564C37.0505 34.7558 37.0505 34.5553 37.1285 34.366C37.2176 34.1766 37.3959 34.0206 37.6521 33.9092C37.9194 33.7978 38.1534 33.7756 38.3539 33.8424C38.5544 33.9092 38.7104 34.0429 38.7995 34.2434C38.8552 34.366 38.8775 34.4885 38.844 34.6222C38.8218 34.7447 38.7549 34.8561 38.6658 34.9675C38.844 34.9675 39 35.0009 39.1337 35.0789C39.2673 35.1569 39.3676 35.2794 39.4344 35.4242C39.5458 35.6693 39.557 35.9032 39.4567 36.1372C39.3676 36.36 39.1782 36.5271 38.9109 36.6496C38.6547 36.761 38.4207 36.7833 38.1979 36.7276C37.9306 36.6607 37.7412 36.4936 37.6187 36.2263C37.5518 36.0815 37.5296 35.9367 37.5518 35.7807C37.5853 35.6136 37.6632 35.4688 37.7858 35.3351ZM37.6632 34.767C37.7078 34.8672 37.7746 34.9341 37.8637 34.9675C37.9529 35.0009 38.042 34.9898 38.1422 34.9564C38.2425 34.9118 38.3093 34.8561 38.3428 34.767C38.3762 34.689 38.3762 34.5888 38.3205 34.4885C38.2759 34.3882 38.2091 34.3325 38.12 34.2991C38.0308 34.2657 37.9417 34.2657 37.8415 34.3103C37.7412 34.3548 37.6744 34.4217 37.6409 34.4996C37.6187 34.5888 37.6187 34.6779 37.6632 34.767ZM38.1311 35.9478C38.1979 36.0926 38.2871 36.1817 38.3984 36.2263C38.5098 36.2708 38.6212 36.2708 38.7326 36.2263C38.844 36.1817 38.922 36.1038 38.9554 35.9924C38.9889 35.881 38.9777 35.7584 38.9109 35.6136C38.8552 35.4911 38.7661 35.402 38.6658 35.3574C38.5544 35.3128 38.443 35.3128 38.3316 35.3574C38.1979 35.4131 38.12 35.5022 38.0977 35.6136C38.0754 35.7361 38.0865 35.8364 38.1311 35.9478ZM41.1722 35.5802L40.8937 35.0566L39.7909 35.6136L39.557 35.1792L39.8355 32.9401L40.2699 32.7173L41.1611 34.366L41.4953 34.1989L41.7292 34.6333L41.395 34.8004L41.6735 35.324L41.1722 35.5802ZM40.6487 34.611L40.1697 33.7199L40.036 34.9229L40.6487 34.611ZM41.8295 34.3437L42.2862 33.9984C42.3753 34.0986 42.4644 34.1543 42.5758 34.1766C42.6872 34.1989 42.7875 34.1766 42.8766 34.1209C42.9769 34.054 43.0437 33.9649 43.0548 33.8424C43.0771 33.7199 43.0326 33.575 42.9212 33.4191C42.8209 33.2631 42.7095 33.174 42.587 33.1406C42.4644 33.1072 42.353 33.1295 42.2416 33.1963C42.0968 33.2854 42.0188 33.4191 41.9854 33.6085L41.551 33.7978L40.9494 32.3608L42.2416 31.5588L42.5313 32.0043L41.6067 32.5725L41.8072 33.0403C41.8852 32.9178 41.9743 32.8287 42.0857 32.7507C42.3085 32.617 42.5424 32.5836 42.7875 32.6393C43.0437 32.695 43.2442 32.851 43.4113 33.096C43.545 33.2966 43.6007 33.5193 43.5895 33.7533C43.5673 34.0763 43.4113 34.3214 43.1105 34.5108C42.8766 34.6556 42.6427 34.7113 42.4087 34.689C42.1859 34.6445 41.9966 34.5331 41.8295 34.3437ZM43.7789 31.3248L44.9263 30.4114L45.2271 30.7567L44.5364 31.3137L45.6392 32.5948L45.1936 32.9512L43.7789 31.3248ZM46.2185 32.0935L45.8063 31.7036L46.2185 31.3026L46.6307 31.6924L46.2185 32.0935Z" fill="#644FCF"/>
<path fill-rule="evenodd" clip-rule="evenodd" d="M25.3427 7.8647C25.2313 7.809 25.0308 7.78672 25.0976 7.60849C25.1199 7.55279 25.1868 7.48595 25.2313 7.46367C25.2425 7.45253 25.3204 7.46367 25.3427 7.46367C25.4096 7.45253 25.4764 7.35228 25.5321 7.38569C25.6101 7.44139 25.6101 7.64191 25.4987 7.66419C25.4318 7.68647 25.4207 7.69761 25.3873 7.74216C25.3873 7.76444 25.365 7.85356 25.3427 7.8647ZM26.2673 4.05493C32.3384 4.05493 37.8303 5.7593 41.8183 8.5108C45.8509 11.2957 48.3461 15.1612 48.3461 19.4388C48.3461 23.7165 45.8509 27.5819 41.8183 30.3668C37.8303 33.1183 32.3273 34.8227 26.2673 34.8227C20.1962 34.8227 14.7043 33.1183 10.7163 30.3668C6.68376 27.5819 4.18848 23.7165 4.18848 19.4388C4.18848 15.1612 6.68376 11.2957 10.7163 8.5108C14.6932 5.7593 20.1962 4.05493 26.2673 4.05493ZM39.3564 8.02066C39.1448 7.90926 38.922 7.78672 38.6992 7.67533C38.1533 7.90926 37.5964 8.12091 37.0505 8.31029C37.2622 8.44396 37.6966 8.57764 38.0419 8.64448C38.4541 8.73359 38.4875 8.71132 38.7437 8.84499C38.9443 8.95639 39.2785 9.23488 39.1336 9.41312C39.0445 9.51337 38.7215 9.52451 38.5321 9.52451C38.3984 9.52451 38.209 9.44653 38.1311 9.52451C38.0642 9.60249 38.287 9.83642 38.2982 9.9701C38.2982 10.1595 38.1868 10.2931 38.2425 10.4157L38.287 10.4825C38.4096 10.6051 38.5098 10.7833 38.688 10.839C38.8663 10.8947 39.1448 10.839 39.2785 10.9949C39.4567 11.1955 39.5235 11.4183 39.5347 11.6188C39.5458 11.797 39.6126 11.9084 39.5681 12.0087C39.5569 12.0421 39.3676 12.0532 39.1782 11.953C39.4455 12.4542 39.6906 12.9667 39.9023 13.5014C41.4841 13.1338 43.0771 12.7105 44.6701 12.2092C44.1465 11.5854 43.5561 10.9838 42.8988 10.4268C42.8543 10.7165 42.91 11.1732 42.7095 11.2957C42.275 11.5631 42.0522 10.0147 41.7292 9.88098C41.5064 9.79186 41.1054 10.3043 40.9271 9.72503C40.7823 9.23488 40.4036 9.45767 40.0137 9.20146C39.4567 8.84499 39.5012 8.74473 39.3341 8.00952L39.3564 8.02066ZM38.0197 7.36341C36.3599 6.60592 34.5441 6.00437 32.5946 5.58107C33.898 6.20489 35.1011 7.04036 36.1593 8.0318C36.1816 8.0318 36.1928 8.0318 36.215 8.02066C36.8166 7.82014 37.4181 7.59735 38.0197 7.36341ZM29.5758 5.10206C28.796 5.02408 28.0051 4.96838 27.203 4.93497C28.6401 5.69246 29.91 7.00695 30.946 8.72246L31.0128 8.84499C31.2245 8.78929 31.3581 9.09006 31.5475 9.22374C31.8817 9.16804 32.2159 9.1012 32.5501 9.03437C32.9511 8.83385 33.2853 8.59992 33.4301 8.57764C33.5749 8.55536 33.6975 8.65562 33.8423 8.73359C34.4216 8.58878 35.0008 8.42168 35.5801 8.23231C33.8757 6.71731 31.826 5.61449 29.5758 5.10206ZM25.0865 4.94611C24.329 4.97952 23.5826 5.03522 22.8474 5.1132C20.6975 5.61449 18.7258 6.65048 17.0771 8.07635C17.4781 8.21003 17.8791 8.34371 18.2913 8.4551C18.4918 8.25459 18.6366 8.05407 18.7258 8.14319C18.826 8.24345 18.826 8.42168 18.7926 8.58878C19.1825 8.70018 19.5835 8.80043 19.9734 8.88955C20.0848 8.78929 19.9957 8.47738 20.1071 8.37712C20.8534 7.63077 20.3744 7.84242 20.0402 7.30772C19.7172 6.78415 20.9871 6.83985 21.2099 6.69503C21.5107 6.50566 22.1456 6.44996 22.3573 6.50566C22.5689 6.56136 22.3684 6.73959 22.6246 6.71731C22.7138 6.70617 22.8252 6.65048 22.9477 6.58364C23.6049 5.90412 24.329 5.34713 25.0865 4.94611ZM19.8286 5.60335C18.5252 5.89298 17.2665 6.26059 16.0856 6.70617C16.1859 6.80643 16.275 6.92897 16.3864 7.07378C16.4421 7.14062 16.7429 7.18518 16.7874 7.26316C16.832 7.33 16.6538 7.60849 16.353 7.65305C16.2193 7.67533 15.8183 7.60849 15.7737 7.60849C16.0077 7.69761 16.2527 7.78672 16.4867 7.87584C17.4892 6.96239 18.6144 6.19375 19.8286 5.60335ZM10.8723 9.45767C9.70262 10.2931 8.68891 11.2289 7.84229 12.2426C8.43269 12.432 9.01196 12.5991 9.60236 12.7662V12.7105C9.59122 12.5656 9.85857 12.5322 9.92541 12.3874C10.0145 12.198 9.95883 11.8861 10.1371 11.7524C10.2485 11.6745 10.527 11.719 10.6161 11.6299C10.9391 11.2957 10.8723 11.3069 10.8277 11.2734C10.694 11.162 10.4044 11.0952 10.3487 10.9615C10.2262 10.6719 10.694 10.3488 10.8946 9.95896C10.9503 9.84756 10.8946 9.63591 10.8723 9.45767ZM7.47468 12.6993C5.92627 14.7156 5.04623 17.0104 5.04623 19.4388C5.04623 19.5057 5.04623 19.5725 5.04623 19.6393H11.4293V19.4388C11.4293 18.9041 11.4515 18.3694 11.5072 17.8458C11.1619 17.8236 10.8166 17.7567 10.6272 17.5451C10.4267 17.3223 10.5938 17.0772 10.4601 16.8321C10.3042 16.5314 10.1036 16.4534 10.0702 16.1081C10.0479 15.9075 10.2039 15.8407 10.2819 15.6179C10.3487 15.4508 10.3264 15.1278 10.3376 14.9941C10.3821 14.5596 10.2039 14.3703 10.1593 14.4594C10.0814 14.6153 9.95883 15.1612 9.76945 15.7739C9.68034 16.0635 9.30159 16.2529 9.23475 15.9521C9.20133 15.7739 9.37957 15.3394 9.39071 15.0052L9.64692 14.0138L9.6135 13.3343C8.9117 13.1449 8.19876 12.9333 7.47468 12.6993ZM5.07965 20.1963C5.25789 22.5022 6.2159 24.6745 7.79773 26.5794C9.37957 26.0892 10.9614 25.6548 12.5432 25.2872C11.9194 23.7053 11.5407 21.9898 11.4627 20.1852H5.07965V20.1963ZM8.18762 27.0361C9.04537 27.9941 10.0591 28.8741 11.2065 29.665C12.1756 30.3334 13.2339 30.935 14.3701 31.4585C14.9717 31.2023 15.5844 30.9572 16.197 30.7345C16.0188 30.5562 15.8406 30.3891 15.6623 30.1997C14.4704 28.9298 13.479 27.4482 12.7549 25.7996C11.2288 26.156 9.70262 26.5682 8.18762 27.0361ZM15.0497 31.7704C16.353 32.3274 17.7566 32.7953 19.2382 33.1518C19.3162 33.1406 19.383 33.1183 19.461 33.1072C18.4473 32.5725 17.5004 31.9264 16.6426 31.1689C16.1079 31.3471 15.5844 31.5476 15.0497 31.7704ZM37.329 31.8373C37.485 31.7704 37.6298 31.7036 37.7857 31.6368C37.1953 31.4028 36.6049 31.1912 36.0145 31.0018C35.7472 31.2469 35.4798 31.4697 35.1902 31.6925C36.2707 31.5254 37.251 31.6702 37.329 31.8373ZM38.4764 31.3137C39.5012 30.8236 40.4593 30.2666 41.3282 29.6539C42.4644 28.863 43.4781 27.9941 44.3247 27.0472C43.0548 26.6573 41.7849 26.312 40.515 26.0112C40.4481 26.0669 40.3813 26.1226 40.3256 26.1783C40.1696 26.3566 40.2699 26.6128 40.1251 26.713C39.7129 27.0027 39.724 26.8356 39.2896 27.0806C39.1671 27.1475 39.0668 27.2255 38.9777 27.2923C38.3761 28.3506 37.6521 29.3309 36.8277 30.1997C36.7163 30.3223 36.5938 30.4448 36.4824 30.5562C37.1396 30.7901 37.808 31.0464 38.4764 31.3137ZM44.7257 26.6016C46.3076 24.6967 47.2879 22.5134 47.455 20.1963H41.0274L41.0162 20.3634C41.1388 20.2854 41.2947 20.3523 41.473 20.3523C41.6735 20.3523 41.8963 20.3077 42.0411 20.4303C42.2193 20.5862 41.9074 20.8424 41.874 21.1321C41.8517 21.3103 42.1859 21.5331 42.0745 21.6668C41.952 21.8116 41.7403 21.9675 41.5509 21.8227C41.3282 21.6445 41.1722 21.6779 40.9494 21.5442L40.9048 21.5219C40.8491 21.923 40.7823 22.3129 40.7043 22.7027C40.6932 22.7584 40.682 22.8253 40.6598 22.9144C40.6041 23.1706 40.5372 23.4268 40.4704 23.683C40.5261 24.0395 40.8157 24.4294 40.916 24.797C40.9383 24.8861 40.8714 25.0421 40.916 25.1423C40.9717 25.276 41.1499 25.354 41.1054 25.4988C41.0942 25.5322 41.0831 25.5545 41.0608 25.5879C42.2862 25.8887 43.5004 26.2229 44.7257 26.6016ZM47.4773 19.6393C47.4773 19.5725 47.4773 19.5057 47.4773 19.4388C47.4773 16.9992 46.5972 14.6933 45.0377 12.677C43.4224 13.1895 41.796 13.6239 40.1808 14.0027C40.2365 14.1029 40.2365 14.2255 40.2142 14.3591C40.7489 15.9521 41.0385 17.6565 41.0385 19.4388V19.6393H47.4773ZM11.5964 17.1552C11.6855 16.4979 11.8192 15.8518 11.9974 15.228C11.8303 15.2726 11.6186 15.3283 11.485 15.4842C11.2844 15.707 11.2733 16.2083 11.251 16.3866C11.2288 16.6873 11.4181 16.9213 11.5964 17.1552ZM16.0522 9.05665L16.0077 9.1012C15.9743 9.16804 15.9854 9.29058 15.9074 9.30172C15.874 9.31286 15.8294 9.324 15.7737 9.34628C15.5732 9.58021 15.3727 9.81414 15.1833 10.0592C15.2279 10.1706 15.317 10.282 15.2836 10.4045C15.2056 10.6719 15.0051 10.7833 15.239 10.9392C15.317 10.9838 15.8406 10.5048 15.9854 10.36C16.0856 10.2597 16.0856 9.86984 16.1636 9.71389C16.3196 9.42425 16.5424 9.35742 16.5869 9.2683C16.6426 9.16804 16.6092 8.73359 17.5784 8.81157C17.311 8.72246 17.0325 8.63334 16.7652 8.54422C16.6649 8.73359 16.4198 8.92297 16.0522 9.05665ZM12.6323 15.0052C12.3427 15.9855 12.1422 17.0104 12.0419 18.0575C12.209 18.0018 12.7549 18.2023 12.7549 18.1689C13.0779 18.3917 13.2896 18.5699 13.4567 18.5031C13.7575 18.3806 13.6126 17.9684 14.0471 17.9684C14.1473 17.9684 14.7155 18.0464 14.8491 18.1132C15.0162 18.1912 14.7823 18.4585 14.8826 18.5254C14.9271 18.5588 15.2279 18.492 15.3504 18.4474C15.5398 18.3694 15.8963 18.414 16.0411 18.4474C16.3753 18.5142 16.3084 18.7593 16.3084 19.1826C16.3084 19.5502 16.4421 19.5836 16.5869 19.6393H18.6812V19.4388C18.6812 17.9795 18.8037 16.5648 19.0377 15.228C17.2553 15.0164 15.473 14.7156 13.6906 14.348C13.6906 14.4037 13.5347 14.5708 13.5569 14.7713C13.6015 15.2057 13.5347 15.9075 13.323 15.4397C13.2228 15.228 13.2339 15.7627 13.0111 15.4842C12.8997 15.3394 13.1448 15.2169 13.0334 15.1278C12.8886 15.0275 12.7549 14.9941 12.6323 15.0052ZM12.0419 18.1355C12.0085 18.5699 11.9862 19.0044 11.9862 19.4388V19.6393H12.4096C12.5432 19.4834 12.6992 19.3943 12.6101 19.1715C12.5432 18.9932 12.5432 18.6479 12.521 18.492C12.5098 18.4028 12.1533 18.2246 12.0419 18.1355ZM11.9974 20.1963C12.0085 20.5194 12.0419 20.8424 12.0754 21.1655C12.0754 21.0986 12.0865 21.0318 12.1199 20.965C12.2647 20.5862 12.2425 20.5082 12.2425 20.1963H11.9974ZM12.0865 21.2769C12.2425 22.6359 12.5878 23.9504 13.0779 25.1646C13.6015 25.0532 14.1139 24.9418 14.6375 24.8416C14.6709 24.7747 14.6932 24.719 14.6821 24.6745C14.6709 24.4851 14.359 24.4962 14.1919 24.4851C13.8911 24.4628 13.9914 23.9727 13.7909 23.8724C13.4455 23.6942 13.6572 22.8698 13.5569 22.8364C12.9777 22.6693 12.922 22.7919 12.922 22.1569C12.7994 22.0232 12.8663 22.0789 12.7437 21.9898C12.4875 21.8227 12.1645 21.5888 12.0865 21.2769ZM13.3007 25.6882C13.9914 27.2366 14.9271 28.6402 16.0522 29.8321C16.2862 30.0772 16.5201 30.3111 16.7652 30.5339C18.1576 30.0549 19.5501 29.6873 20.9425 29.4088C20.2185 28.0275 19.6392 26.4234 19.2605 24.6745C18.6032 24.7524 17.9348 24.8416 17.2776 24.9418C17.233 25.276 17.233 25.7105 17.1439 25.8664C17.1439 25.8664 16.9211 26.0335 16.7986 26.156C16.6872 26.2786 16.6315 26.5905 16.5758 26.7576C16.5312 26.8913 16.4533 26.8578 16.4755 26.9915C16.4978 27.1029 16.7318 27.0472 16.7986 27.2143C16.8988 27.4817 16.5647 27.6488 16.5201 27.8938C16.4867 28.1389 16.754 28.462 16.91 28.6513C16.9657 28.7182 16.988 29.0301 17.0882 29.1192C17.3779 29.3866 17.6229 29.42 17.6229 29.665C18.0574 30.8347 16.1191 29.1192 15.8406 28.8964C15.6958 28.7961 15.6066 28.3171 15.4507 27.9607C15.395 27.8381 15.239 27.8716 15.2056 27.749C15.1276 27.4928 15.0497 27.2589 15.0497 27.1029C15.0497 26.5348 14.7377 26.6016 14.6041 26.2452C14.5595 26.1226 14.3813 25.8776 14.437 25.6548C14.4704 25.5434 14.5038 25.4877 14.515 25.4208C14.1028 25.5099 13.7018 25.5991 13.3007 25.6882ZM17.2442 30.9572C18.0462 31.6256 18.9151 32.2049 19.8397 32.6839C19.8843 32.2829 19.8063 31.659 19.9511 31.8484C20.7643 32.8733 21.6443 32.7953 21.856 33.0626C22.1345 33.408 22.7138 33.0961 23.3599 32.7062C22.6246 32.0155 21.9451 31.1578 21.3547 30.1663C21.3102 30.0884 21.2656 30.0104 21.2099 29.9324C19.8954 30.1775 18.5698 30.5228 17.2442 30.9572ZM19.1379 24.1398C18.8928 22.8921 18.748 21.5665 18.7035 20.1963H17.0325C17.0659 20.2966 17.0994 20.3523 17.2108 20.3523C17.389 20.3634 17.8123 20.2632 18.0797 20.4303C18.503 20.6976 18.0574 21.9007 18.0574 22.3574C17.8346 22.324 18.0574 22.48 18.0017 22.5468C17.9126 22.6693 17.8903 22.7473 17.868 22.8921C17.8012 23.2375 17.5115 23.3823 17.4781 23.7165C17.467 23.8724 17.4558 24.1509 17.4113 24.3737C17.9905 24.2846 18.5698 24.2066 19.1379 24.1398ZM19.1491 14.6933C19.5167 12.8664 20.0737 11.1955 20.7977 9.7473C20.6084 9.8587 20.3856 9.9144 20.1294 10.0815C19.9623 10.1929 19.8954 10.3934 19.7172 10.4157C19.4276 10.4602 19.0934 10.2709 19.2048 10.2375C19.0488 9.78072 19.1825 9.53565 19.3941 9.33514C19.1268 9.2683 18.8594 9.20146 18.5921 9.12348C18.5698 9.16804 18.5587 9.2126 18.5587 9.23488C18.4807 9.72503 17.6229 9.05664 17.2442 9.60249C17.1328 9.7473 17.1328 9.95896 17.3222 9.98124C17.467 10.0035 17.7789 9.8587 17.9126 9.90326C18.1799 10.0035 18.2022 10.3154 17.8123 10.5271C17.7009 10.5828 17.3779 10.839 17.4558 10.9949C17.6563 11.4071 17.7677 11.5074 17.4001 11.6299C17.2108 11.6856 17.1105 11.9641 16.9545 12.0309C16.7652 12.1201 16.5424 12.0087 16.5201 12.1423C16.4644 12.4097 16.4755 12.833 16.2082 12.8441C15.9854 12.8553 15.9408 12.5211 15.5955 12.4654C15.4841 12.4431 15.1833 12.6659 15.0274 12.6659C14.6041 12.6659 14.4593 13.4011 14.1696 13.7576C14.1362 13.8021 14.0916 13.8467 14.0582 13.8801C15.7626 14.2143 17.4558 14.4817 19.1491 14.6933ZM26.1448 5.07978C25.4318 5.33599 24.7412 5.73702 24.1062 6.27173C24.3847 6.3497 24.3067 6.16033 24.3958 6.10463C24.6632 5.9264 24.8749 5.7593 25.0308 5.88184C25.1422 5.95982 24.3179 6.58364 24.3958 6.82871C24.485 7.11834 24.4515 6.88441 25.2759 7.09606C25.688 7.20746 24.886 7.30772 24.4404 7.65305C24.2733 7.78672 23.7832 7.78672 23.7163 7.96496C23.6495 8.14319 23.9391 8.72246 23.7609 8.75587C23.3821 8.81157 23.6272 8.98981 23.5938 9.07892C23.5604 9.16804 23.3264 9.02323 22.7695 9.01209C22.6469 9.01209 22.5132 9.16804 22.3461 9.1569C22.0899 9.14576 21.9117 9.13462 21.7557 9.1569L21.6889 9.2683C22.7026 9.44653 23.7052 9.55793 24.7189 9.62477L24.7635 9.56907C24.9306 9.35742 24.7969 9.23488 24.9306 9.12348C25.0085 9.05665 25.2313 9.14576 25.3316 9.09006C25.4875 9.01209 25.521 8.78929 25.6212 8.83385C25.7437 8.87841 25.7215 9.1569 25.8329 9.16804C26.1671 9.19032 25.9108 9.04551 26.1448 8.81157C26.4121 8.54422 26.5792 8.63334 26.958 8.64448C27.3479 8.65562 27.838 9.06779 27.5484 9.40198C27.4815 9.47995 27.203 9.3797 27.0694 9.46881C26.958 9.53565 26.8689 9.62477 26.8354 9.69161C27.1028 9.69161 27.359 9.68047 27.6264 9.66933C27.7043 9.64705 27.7712 9.62477 27.8046 9.61363C27.838 9.60249 28.3059 9.58021 28.5287 9.46881C29.0188 9.22374 29.0299 8.85613 29.0634 8.74473C29.1302 8.5108 29.1191 8.35485 28.7515 8.55536C28.5621 8.65562 28.5844 8.88955 28.4507 9.02323C28.2836 9.19032 27.9828 9.25716 27.9828 9.20146C27.9717 9.03437 28.2613 8.75587 28.5398 8.35485C28.6846 8.15433 28.4061 7.83128 28.5621 7.74216C28.5844 7.67533 28.6289 7.63077 28.6735 7.60849C28.874 7.49709 29.2193 7.71988 29.431 7.82014C29.5869 7.88698 29.3196 8.17661 29.4755 8.26573C29.832 8.4551 30.233 8.27687 30.0994 8.71132C30.0659 8.84499 29.9991 9.24602 30.1996 9.2683C30.3556 9.27944 30.4224 9.2126 30.5227 9.11234L30.467 9.01209C29.2973 7.06264 27.8046 5.67018 26.1448 5.07978ZM21.4104 9.75844C20.6641 11.2066 20.0737 12.8887 19.706 14.749C20.5527 14.8381 21.3993 14.9161 22.257 14.9718C22.4464 14.749 22.6692 14.5708 22.9922 14.5708C23.1928 14.5708 23.4713 14.7156 23.694 14.7713C24.0505 14.8716 24.329 14.9273 24.4404 15.0721C24.73 15.0052 25.0197 15.0275 25.287 15.0943C25.5655 15.0943 25.8551 15.1055 26.1336 15.1055C26.0891 15.0721 26.0445 15.0387 26.0111 15.0387C25.8886 15.0275 26.3007 14.8604 26.2562 14.7713C26.0779 14.426 26.2228 14.5262 26.2562 14.4037C26.323 14.1809 26.2673 14.27 25.766 14.0806C25.7103 14.0584 25.7994 13.8356 25.7215 13.8133C25.6769 13.8021 25.5655 13.9024 25.4987 13.8913C25.4541 13.8801 25.1979 14.1475 25.0976 14.1586C24.9417 14.1698 24.9417 13.9024 24.8414 13.8021C24.7857 13.7464 24.8414 13.4902 24.808 13.4123C24.73 13.2117 24.6298 13.1895 24.5852 13.3009C24.5518 13.3677 24.485 13.8913 24.5518 14.2255C24.5964 14.4148 24.7969 14.4148 24.7857 14.5374C24.7746 14.6599 24.485 14.5931 24.4404 14.5819C24.3513 14.5374 24.3624 14.3146 24.3067 14.1363C24.2733 14.0361 24.1953 13.9915 24.1396 13.9024C24.0282 13.6796 23.8054 13.5682 23.7832 13.6016C23.7275 13.7242 23.6829 14.0027 23.5158 14.0918C23.371 14.1698 23.1259 14.0472 22.9811 14.1252C22.6803 14.2923 22.4575 14.5039 22.2904 14.2143C22.2013 14.0584 22.4018 13.8467 22.2682 13.713C22.2682 13.3454 21.9228 12.8998 22.2236 12.6548C22.3239 12.5656 22.6135 12.5322 22.9031 12.5099C23.0591 12.4988 23.2039 12.4097 23.3487 12.4988C23.449 12.5656 23.3376 11.9864 23.5047 11.9084C23.7943 11.7859 24.251 11.8527 24.3736 11.7524C24.4181 11.719 24.1842 11.5408 24.5964 11.4628C24.9306 11.396 25.2536 11.3403 25.287 11.3291C25.7437 11.2734 26.0891 10.9727 26.0111 10.2152H25.7994C25.7549 10.2375 25.688 10.2709 25.6212 10.3266C25.4318 10.4491 25.443 10.7499 25.209 10.8167C25.0308 10.8724 24.9974 10.6608 24.7969 10.6162C24.6855 10.5939 24.3736 10.7387 24.3179 10.7165C24.2065 10.6608 24.251 10.4268 24.3736 10.1595C24.1953 10.1483 24.006 10.1261 23.8277 10.1149C23.8611 10.1483 23.8946 10.1929 23.8946 10.2486C23.9057 10.3823 23.9057 10.3711 23.8946 10.4825C23.8611 10.7276 23.7275 11.1286 23.5492 11.2289C23.3153 11.3626 22.6692 11.4628 22.4241 11.2957C22.3796 11.1398 22.8697 10.9393 22.8697 10.839C22.8697 10.7722 22.9811 10.5271 23.0257 10.4825L23.1482 10.36C23.2373 10.2709 23.293 10.1483 23.3821 10.0592C22.7472 9.98124 22.0788 9.88098 21.4104 9.75844ZM19.5946 15.2949C19.3607 16.6093 19.2382 18.0018 19.2382 19.4388V19.6393H23.449C23.3042 19.2383 22.9031 18.9487 22.4353 19.0044C22.257 19.0267 22.1679 18.9041 22.012 18.893C21.8114 18.8707 21.5664 18.9487 21.455 18.8707C21.3547 18.8039 21.5107 18.6813 21.2767 18.6033C20.9091 18.492 20.3967 18.1466 20.742 17.6676C20.976 17.5228 20.9314 17.0884 20.898 16.8099C20.8312 16.2529 20.9425 16.186 21.4773 15.8518C21.6109 15.7627 21.7335 15.6402 21.8449 15.4954C21.1096 15.4508 20.3521 15.384 19.5946 15.2949ZM19.2605 20.1963C19.305 21.5442 19.4498 22.8476 19.6949 24.0729C21.1765 23.917 22.6581 23.8056 24.1396 23.761C24.1174 23.6051 24.1396 23.3823 24.1174 23.2375C24.0728 22.9478 23.9725 22.7473 23.9057 22.4577C23.8166 22.0455 23.527 21.8784 23.3821 21.5999C23.3153 21.4774 23.4044 21.1543 23.3487 21.0764C23.2707 20.9761 23.2596 20.7199 23.3264 20.4748C23.3599 20.3634 23.449 20.3077 23.4824 20.1963H19.2605ZM19.8063 24.6188C20.1962 26.3677 20.7755 27.9495 21.5107 29.3086C23.1816 29.0189 24.8637 28.863 26.5347 28.863C27.9717 28.863 29.4087 28.9744 30.8457 29.186C31.5475 27.8493 32.1045 26.312 32.4832 24.6076C30.6452 24.4071 28.8072 24.2957 26.9691 24.2734C26.8132 24.4183 26.6572 24.7413 26.479 24.9084C26.401 24.9752 26.1448 24.9975 26.0334 25.0866C25.8329 25.2315 25.7549 25.4431 25.6546 25.4542C25.2982 25.4877 25.2425 25.1758 25.0085 24.7636C24.8971 24.5742 24.6966 24.4405 24.5184 24.2846C22.9365 24.3403 21.3659 24.4517 19.8063 24.6188ZM21.8003 29.821L21.8337 29.8767C22.4353 30.8793 23.1148 31.7259 23.8611 32.4054C24.251 32.1826 24.6298 32.0044 24.9751 31.9598C25.1868 31.9375 26.4121 32.4277 27.0805 32.1715C27.8491 31.8818 28.1388 31.3026 28.2613 31.3583C28.3839 31.6925 28.5732 31.9041 28.8183 32.0267C29.4087 31.4251 29.9657 30.701 30.4558 29.8767L30.5561 29.7096C29.2082 29.5202 27.8714 29.42 26.5347 29.42C24.9528 29.42 23.371 29.5536 21.8003 29.821ZM33.8757 31.9598C34.4104 31.6145 34.9228 31.2246 35.413 30.8013C33.9871 30.3557 32.5724 30.0215 31.1576 29.7987C31.0908 29.9213 31.0128 30.0438 30.946 30.1663C30.5004 30.9127 29.9991 31.5811 29.4644 32.1715C30.2442 32.1826 31.2356 31.7816 31.9597 31.5922C32.4721 31.4474 32.9066 32.0267 33.8757 31.9598ZM35.8808 30.378C36.0702 30.1997 36.2485 30.0215 36.4156 29.8321C36.9614 29.2529 37.4627 28.6291 37.9194 27.9607C37.5295 28.0387 37.8971 27.4817 37.407 26.9915C37.2844 26.869 37.1619 27.0472 37.1062 26.947C36.928 26.6351 37.1174 26.0669 36.9614 25.9667C36.8277 25.8776 36.9391 25.6659 36.1928 26.0781C35.8252 26.2897 35.9143 26.2897 35.7249 26.3009C35.4575 26.312 35.0677 26.3454 34.8449 26.3009C34.455 26.234 34.4773 25.911 34.4995 25.4988C34.5107 25.3428 34.6889 25.0532 34.7 24.8861C34.1542 24.8081 33.5972 24.7302 33.0514 24.6745C32.6726 26.3677 32.1268 27.9273 31.4361 29.2752C32.9066 29.5314 34.3881 29.899 35.8808 30.378ZM40.203 22.402C40.281 21.9787 40.3479 21.5331 40.4036 21.0986C40.3367 21.0541 40.2476 21.0207 40.1473 20.9872C39.9357 21.0541 39.5347 20.4303 39.6572 20.1963H33.5972C33.5527 21.5665 33.4078 22.8921 33.1628 24.1398C33.5972 24.1955 34.0317 24.2512 34.4661 24.3069C34.4995 24.1063 34.7892 23.8167 35.0788 23.6051C35.4018 23.36 35.97 23.282 36.0479 23.2375C36.5158 22.9701 37.0394 22.7139 37.2956 22.5134C37.4181 22.4131 37.4627 22.3129 37.6966 22.3463C37.7635 22.3574 38.0642 22.4911 38.1645 22.3574C38.4764 21.9898 38.9888 21.8116 39.0334 22.1903C39.0557 22.3351 39.1893 22.9033 39.3007 22.8476C39.3564 22.803 39.8243 22.5134 40.203 22.402ZM40.4593 20.3746L40.4704 20.1963H40.0694C40.1808 20.252 40.3144 20.33 40.4593 20.3746ZM40.4815 19.6393V19.4388C40.4815 17.935 40.2699 16.4868 39.8689 15.1166C39.8354 15.1723 39.8132 15.228 39.7909 15.2837C39.7352 15.4174 39.7797 15.5845 39.8243 15.7627C39.8911 16.0189 40.0025 16.264 39.9134 16.4088C39.724 16.6985 39.8243 16.6539 39.6683 16.4088C39.6126 16.3309 39.4678 15.9855 39.3898 15.9298C39.1893 15.7961 38.9554 15.7961 38.8329 15.6068C38.7215 15.4397 39.1671 15.0387 39.2339 14.9273C39.3007 14.8159 39.3007 14.5039 39.2896 14.2143C38.8551 14.3146 38.4207 14.4037 37.9862 14.4817C37.9862 14.5151 37.9862 14.5374 37.9974 14.5708C38.0197 14.7713 38.209 14.9607 38.1868 15.15C38.1756 15.3171 37.8526 15.1055 37.8414 15.3394C37.8303 15.4397 38.0197 15.6513 37.9528 15.7739C37.8414 15.9967 37.9862 16.264 37.9083 16.3643C37.886 16.3977 37.7189 16.2752 37.6743 16.3086C37.4181 16.4534 37.4961 16.4757 37.2288 16.4423C37.0728 16.42 36.8054 16.2195 36.7386 16.4311C36.7052 16.5536 36.8054 16.9881 36.7386 17.0772C36.5938 17.2666 36.0368 16.9992 35.892 17.1329C35.7138 17.3 35.6469 17.5339 35.491 17.4337C35.257 17.2777 35.3016 16.9213 35.179 16.6762C35.0899 16.4757 34.8337 16.3977 34.6889 16.2083C34.5775 16.0635 34.2322 15.941 34.1765 15.863C34.0539 15.7182 34.0651 15.4285 34.0205 15.3171C33.9982 15.2392 33.976 15.1835 33.9537 15.1389L33.7866 15.1612L33.7198 15.2614C33.5192 15.5845 33.3633 15.6402 33.2742 15.6625C33.4635 16.8656 33.5638 18.1355 33.5638 19.4388V19.6393H35.9143C35.7583 19.3831 35.4798 19.1158 35.2682 18.8596C35.012 18.5476 35.1902 18.414 35.3684 18.258C35.5132 18.1355 35.6024 17.9127 35.8474 18.0241C35.97 18.0909 35.9031 18.5922 36.0591 18.9041C36.1705 19.1269 36.5047 19.1826 36.5826 19.2717C37.0839 19.773 36.9725 19.2383 37.4515 19.0935C37.6409 19.0378 37.8526 18.893 37.9417 18.7704C38.1645 18.4363 38.1756 17.9572 38.4875 18.336C38.6992 18.6033 38.7326 19.4834 38.4541 19.216C38.2202 18.9821 38.3761 19.4945 38.209 19.6505H40.4815V19.6393ZM39.323 13.5348C38.9665 12.677 38.5321 11.8638 38.0308 11.0952C37.9083 11.162 37.886 11.2623 38.0976 11.5965C38.1422 11.6633 38.3204 11.797 38.365 11.875C38.3984 11.9195 38.4875 12.1089 38.5878 12.432C38.6101 12.5099 38.8774 12.6659 38.8663 12.7662C38.8551 12.8887 38.9554 13.1672 38.7994 13.2674C38.5989 13.4011 38.3204 13.0112 38.1868 13.2229C38.0976 13.3566 38.1645 13.6462 38.1311 13.8244L38.1199 13.8913C38.4987 13.8133 38.8774 13.7353 39.2562 13.6573C39.2673 13.6128 39.2896 13.5794 39.323 13.5348ZM32.6058 24.0729C32.8509 22.8476 32.9957 21.5442 33.0402 20.1963H27.994C28.0162 20.3968 28.0274 20.731 28.0719 20.9872C28.1499 21.3548 28.1722 21.6668 28.0385 21.8004C27.8046 22.0344 27.8157 22.4131 27.6264 22.5691C27.4593 22.7139 27.1696 22.5914 27.1362 22.7696C27.1139 22.8698 27.1028 23.0369 27.1696 23.1372C27.2476 23.2374 27.4258 23.2486 27.4704 23.36C27.515 23.4825 27.515 23.6162 27.4815 23.7387C29.197 23.7833 30.9014 23.8947 32.6058 24.0729ZM33.0514 19.6393V19.4388C33.0514 18.6702 33.018 17.9238 32.9511 17.1886C32.9066 17.2443 32.8509 17.3 32.7952 17.3334C32.6726 17.4114 32.4387 17.3557 32.3162 17.4448C32.1602 17.5674 32.1268 17.8458 31.982 17.8904C31.8371 17.935 31.8037 17.4448 31.6923 17.1552C31.5921 16.8878 31.5921 16.4645 31.4473 16.1192C31.3916 15.9855 31.1465 15.8073 31.1131 15.7293C31.0685 15.6291 31.024 15.5399 30.9905 15.462C30.6675 15.4842 30.3556 15.5065 30.0325 15.5288C30.0548 15.6959 30.1662 15.8518 30.1328 15.9075C30.0214 16.0635 29.8209 16.1081 29.6761 16.2417C29.509 16.3977 29.3864 16.6316 29.1636 16.7542C28.9631 16.8656 28.9297 16.8544 28.7515 16.8544C28.5732 16.8656 28.2502 16.8878 28.0942 16.8767C27.6932 16.821 27.8937 16.5425 27.203 15.8741C27.1028 15.7739 26.958 15.7182 26.8243 15.6625H26.3898C26.4455 15.707 26.4901 15.7404 26.5458 15.785C26.8466 16.0301 27.1251 16.2752 27.281 16.5091C27.3701 16.6316 27.281 16.8544 27.3701 16.9435C27.5038 17.0884 27.7489 17.0995 27.9828 17.1552C28.0497 17.1663 27.994 17.3111 28.1054 17.3334C28.2279 17.3557 28.5064 17.2666 28.5621 17.2777C29.2305 17.4448 29.2305 17.4114 29.2082 17.6788C29.197 17.8236 28.9408 18.0018 28.9408 18.4028C28.9408 19.1937 28.952 18.9598 28.7849 19.1269C28.718 19.1937 28.7737 19.2717 28.6289 19.4165C28.5398 19.5057 28.4395 19.5725 28.3393 19.6505H33.0514V19.6393ZM30.6675 14.9273L30.7566 14.9161C30.712 14.8381 30.712 14.8604 30.6675 14.9273ZM15.2056 7.9761C14.8937 7.85356 14.5929 7.73102 14.281 7.59735C14.2253 7.61963 14.1808 7.66419 14.1696 7.70874C14.1362 7.82014 14.4258 7.99838 14.6821 8.15433C14.76 8.19889 14.9494 8.08749 15.2056 7.9761ZM31.6144 7.809C31.6144 7.95382 31.5921 8.02066 31.6589 8.08749C31.7146 8.14319 31.6589 8.15433 31.7814 8.16547C31.8371 8.17661 31.8371 8.21003 31.9374 8.21003H32.2939C32.3496 8.21003 32.5835 8.23231 32.6169 8.21003C32.6726 8.17661 32.5612 8.16547 32.6949 8.16547C32.8397 8.16547 33.018 8.06521 33.018 7.88698C33.018 7.70875 32.94 7.63077 32.784 7.68647L32.3719 7.82014C32.2159 7.8647 32.227 7.73102 32.0265 7.73102C31.982 7.73102 31.8149 7.7533 31.7926 7.73102C31.748 7.70874 31.8483 7.70874 31.748 7.73102C31.6701 7.74216 31.7146 7.76444 31.6144 7.809ZM28.7292 21.8339C28.5844 22.1123 28.4507 22.1346 28.473 22.3463C28.4841 22.4688 28.6735 22.5579 28.7403 22.6693C28.796 22.7807 28.7292 23.0704 28.7292 23.1706C28.7292 23.3488 28.7849 23.3043 28.8851 23.2486C29.0745 23.1483 29.1525 23.0147 29.2639 22.8364C29.3307 22.7362 29.4867 22.6025 29.509 22.48C29.5312 22.3574 29.4533 22.2015 29.4533 22.0789C29.4533 21.9787 29.4644 21.8004 29.3084 21.7447C29.0856 21.689 28.7403 21.6445 28.7292 21.8339ZM38.1756 20.6308C38.365 20.5194 38.3873 20.2743 38.7326 20.4748C38.9443 20.5973 38.922 20.6308 39.0111 20.8758C39.0668 21.0207 38.5432 21.3326 38.3316 21.3103C38.1868 21.2991 38.0642 21.2323 37.9305 21.2323H37.6966C37.251 21.2212 38.0419 20.7087 38.1756 20.6308ZM41.4173 22.1903C41.2724 22.3797 41.3282 22.5579 41.3282 22.7584C41.3282 22.7807 41.317 22.9033 41.3282 22.9144C41.3393 22.9255 41.3504 22.9701 41.3727 22.9924C41.395 23.0369 41.4284 23.3266 41.4841 23.3711C41.5398 23.4157 41.5955 23.3823 41.7292 23.3823C41.874 23.3823 41.7292 23.1929 41.8517 23.1483C42.0745 23.0815 42.1302 22.7473 42.1302 22.4688C42.1302 22.3463 42.1525 22.2794 42.1079 22.2237C42.0299 22.1235 41.9408 22.1458 41.8072 22.1458C41.7069 22.1458 41.7292 22.1458 41.6846 22.1903C41.6512 22.246 41.4841 22.0901 41.4173 22.1903ZM39.3007 29.0746C39.724 28.462 40.2922 28.4842 40.6932 28.0721C40.994 27.7713 41.1499 27.3369 41.4061 27.0695C41.4841 26.9915 41.5398 27.2477 41.5287 27.3925C41.4841 27.7602 40.7712 28.5065 40.5707 28.707C40.359 28.9187 40.1808 28.9187 39.9357 29.0635C39.8132 29.1526 39.3007 29.264 39.3007 29.0746ZM38.3093 16.821L38.4096 16.6539V16.4645L38.6435 16.4311L38.8106 16.665L38.6992 17.1886L38.1422 17.1329L38.3093 16.821ZM38.2313 17.4448L38.2647 17.7345L38.521 17.8124L38.7772 17.7567L38.9443 17.3557L38.4318 17.2889L38.2313 17.4448ZM37.485 17.6565L37.5964 17.9684L37.7523 18.2023L37.9528 18.1689L37.9305 17.5117L37.485 17.6565ZM37.006 18.0686H37.3847L37.4404 18.4808L37.0505 18.492L37.006 18.0686ZM12.8663 15.9187C12.8663 16.0635 12.8886 16.0969 12.9554 16.1638C13.0111 16.2195 13.0222 16.2083 13.1448 16.2195C13.2005 16.2306 13.1336 16.3866 13.2339 16.3977L13.5458 16.4311C13.6015 16.4311 13.5904 16.665 13.6238 16.6428C13.6795 16.6093 13.6461 16.6428 13.7797 16.6428C13.9246 16.6428 13.9468 16.4868 13.9468 16.2974C13.9468 16.1192 14.0359 15.9744 13.8689 15.9744H13.6572C13.4901 15.9744 13.5458 15.941 13.3564 15.941C13.3119 15.941 13.2673 15.7293 13.2339 15.707C13.1893 15.6848 13.1002 15.6959 13 15.7293C12.9331 15.7739 12.9665 15.8853 12.8663 15.9187ZM14.0359 16.6985C14.0805 16.6316 14.1028 16.5202 14.203 16.5759C14.2365 16.5982 14.2699 16.6316 14.281 16.665C14.281 16.6762 14.2699 16.7096 14.2699 16.7319C14.2699 16.7764 14.3256 16.821 14.3033 16.8544C14.2587 16.899 14.1473 16.8767 14.1362 16.821C14.1362 16.7764 14.1139 16.7764 14.1028 16.7542C14.0916 16.7319 14.0471 16.7096 14.0359 16.6985Z" fill="#644FCF"/>
</g>
<defs>
<clipPath id="clip0_2084_594">
<rect width="52.5236" height="39" fill="white"/>
</clipPath>
</defs>
</svg>
